<svg width="32" height="32" viewBox="0 0 32 32" fill="none" xmlns="http://www.w3.org/2000/svg">
<rect width="32" height="32" rx="4" fill="#FF4C00"/>
<path fill-rule="evenodd" clip-rule="evenodd" d="M25.4391 16C25.4391 22.0748 20.5192 27 14.4509 27C11.9996 27 9.73515 26.196 7.9076 24.8382C8.22047 25.0139 8.54286 25.1723 8.8748 25.3156C10.1319 25.858 11.4864 26.1387 12.8561 26.1387C15.4067 26.1387 17.8619 25.1723 19.7314 23.4384C21.6008 21.7043 22.7493 19.3268 22.9439 16.7811C22.9706 16.5405 22.9858 16.2998 22.9896 16.0592C22.9896 15.7517 22.9648 15.3965 22.9324 15.0719C22.9305 15.0413 22.9286 15.0089 22.9267 14.9783C22.9267 14.942 22.9248 14.9057 22.9209 14.8714L22.9114 14.8809C22.8657 14.4589 22.818 14.1342 22.818 14.1342H14.8458L14.2258 15.2953L12.8027 17.9881H18.8271C18.6039 18.6546 18.2701 19.2809 17.8408 19.8385C17.2552 20.6063 16.5017 21.2269 15.6356 21.6547C14.7714 22.0824 13.8195 22.3059 12.8542 22.304C12.1159 22.304 11.3834 22.1703 10.6909 21.9144C9.47953 21.4714 8.43413 20.6674 7.69586 19.6093C6.95759 18.5495 6.56079 17.291 6.56079 16C6.56079 15.1731 6.72294 14.3519 7.03962 13.588C7.35629 12.8241 7.81985 12.129 8.40361 11.5427C8.98735 10.9583 9.68174 10.4924 10.4467 10.1773C11.2117 9.86215 12.0301 9.69792 12.8561 9.69792C14.1896 9.69601 15.4906 10.12 16.5665 10.9087L17.3925 9.35989L18.3769 7.49792C16.7344 6.42656 14.8153 5.85746 12.8542 5.85937C11.1201 5.85937 9.43183 6.30625 7.93813 7.13507C9.76377 5.79444 12.0148 5 14.4509 5C20.5192 5 25.4391 9.92517 25.4391 16Z" fill="white"/>
</svg>
